<?xml version="1.0" encoding="UTF-8" standalone="no"?><!DOCTYPE svg PUBLIC "-//W3C//DTD SVG 1.1//EN" "http://www.w3.org/Graphics/SVG/1.1/DTD/svg11.dtd"><svg width="100%" height="100%" viewBox="0 0 48 48" version="1.1" xmlns="http://www.w3.org/2000/svg" xmlns:xlink="http://www.w3.org/1999/xlink" xml:space="preserve" style="fill-rule:evenodd;clip-rule:evenodd;stroke-linejoin:round;stroke-miterlimit:1.41421;"><g><g><path d="M30.321,25.287c-0.055,0.025 -0.112,0.05 -0.169,0.076c-0.24,0.125 -0.117,0.221 0.765,0.81c0.033,0.023 0.061,0.032 0.104,0.032c0.043,0 1.182,0 1.182,0c0,0 0,2.885 0,2.939c0,0.032 -0.018,0.061 -0.057,0.047c-0.417,-0.141 -0.695,-0.559 -0.695,-0.559c0,0 -0.131,0.554 -0.514,0.662c-0.383,0.11 -0.841,-0.511 -1.423,-1.485c0,0 -0.673,0.192 -1.681,0.624c-0.047,0.021 -0.091,0.004 -0.111,-0.025c-0.021,-0.03 -0.339,-0.482 -0.356,-0.508c-0.069,-0.098 -0.056,-0.239 0.039,-0.33c1.188,-1.123 1.666,-1.701 1.842,-1.944c0.053,-0.072 -0.001,-0.085 -0.126,-0.089c-0.581,-0.02 -0.923,0.091 -1.35,0.58c-0.027,0.031 -0.162,-0.01 -0.133,-0.082c0.151,-0.379 0.175,-0.4 0.152,-0.482c-0.023,-0.082 -0.109,-0.205 -0.395,-0.209c-0.06,-0.001 -0.068,-0.149 -0.012,-0.156c0.33,-0.042 0.536,-0.127 0.586,-0.237c0.035,-0.076 0.019,-0.335 0.022,-0.381c0.003,-0.063 0.125,-0.083 0.144,-0.028c0.019,0.054 0.138,0.364 0.263,0.412c0.124,0.048 0.697,0.218 0.834,0.189c0.138,-0.029 0.167,-0.146 0.153,-0.224c-0.04,-0.234 -0.12,-0.432 -0.233,-0.505c-0.113,-0.072 -0.664,-0.42 -0.693,-0.445c-0.029,-0.026 0.012,-0.119 0.05,-0.112c0.037,0.01 0.578,0.18 0.637,0.19c0.058,0.008 0.127,-0.039 0.147,-0.094c0.022,-0.055 0.11,-0.403 0.125,-0.45c0.015,-0.047 0.128,-0.038 0.133,0.012c0.006,0.049 -0.016,0.499 0.001,0.554c0.018,0.055 0.133,0.521 0.281,0.671c0.149,0.151 0.23,0.166 0.471,0.067c0.241,-0.099 1.397,-0.76 1.711,-1.12c0.078,-0.09 0.166,-0.353 -0.348,-0.544c-0.448,-0.167 -2.636,-0.858 -3.992,0.712c-0.024,0.029 -0.131,-0.021 -0.11,-0.061c0.27,-0.502 0.3,-0.587 0.259,-0.698c-0.042,-0.11 -0.109,-0.213 -0.513,-0.243c-0.037,-0.004 -0.051,-0.111 -0.005,-0.122c0.485,-0.123 0.747,-0.19 0.747,-0.288c0,-0.099 -0.457,-0.523 -0.488,-0.549c-0.032,-0.026 0.045,-0.112 0.092,-0.088c0.23,0.122 0.654,0.306 0.867,0.166c0.212,-0.139 0.126,-0.598 0.112,-0.672c-0.005,-0.031 0.108,-0.074 0.129,-0.025c0.019,0.049 0.287,0.767 0.505,0.973c0.218,0.207 0.726,0.171 0.854,-0.067c0.129,-0.237 -0.198,-0.776 -0.325,-0.903c-0.029,-0.029 0.038,-0.114 0.066,-0.099c0.029,0.015 0.271,0.187 0.404,0.394c0.135,0.206 0.384,0.716 0.599,0.837c0.214,0.123 0.802,0.301 0.895,0.146c0.093,-0.154 -0.248,-0.625 -0.267,-0.647c-0.021,-0.024 0.059,-0.122 0.089,-0.099c0.523,0.397 1.034,1.247 1.034,1.729c0,0.448 -0.831,1.079 -2.298,1.748ZM24.316,25.287c-0.056,0.025 -0.112,0.05 -0.17,0.076c-0.239,0.125 -0.116,0.221 0.765,0.81c0.034,0.023 0.062,0.032 0.105,0.032c0.042,0 1.182,0 1.182,0c0,0 0,2.885 0,2.939c0,0.032 -0.018,0.061 -0.057,0.047c-0.417,-0.141 -0.695,-0.559 -0.695,-0.559c0,0 -0.131,0.554 -0.515,0.662c-0.382,0.11 -0.84,-0.511 -1.422,-1.485c0,0 -0.673,0.192 -1.681,0.624c-0.047,0.021 -0.091,0.004 -0.111,-0.025c-0.021,-0.03 -0.338,-0.482 -0.357,-0.508c-0.069,-0.098 -0.056,-0.239 0.041,-0.33c1.187,-1.123 1.664,-1.701 1.841,-1.944c0.054,-0.072 -0.001,-0.085 -0.125,-0.089c-0.581,-0.02 -0.925,0.091 -1.35,0.58c-0.027,0.031 -0.164,-0.01 -0.134,-0.082c0.15,-0.379 0.175,-0.4 0.152,-0.482c-0.023,-0.082 -0.11,-0.205 -0.395,-0.209c-0.06,-0.001 -0.068,-0.149 -0.012,-0.156c0.329,-0.042 0.536,-0.127 0.586,-0.237c0.035,-0.076 0.019,-0.335 0.022,-0.381c0.003,-0.063 0.125,-0.083 0.144,-0.028c0.019,0.054 0.138,0.364 0.262,0.412c0.125,0.048 0.698,0.218 0.835,0.189c0.137,-0.029 0.166,-0.146 0.154,-0.224c-0.041,-0.234 -0.121,-0.432 -0.235,-0.505c-0.112,-0.072 -0.663,-0.42 -0.692,-0.445c-0.029,-0.026 0.011,-0.119 0.049,-0.112c0.038,0.01 0.58,0.18 0.638,0.19c0.058,0.008 0.127,-0.039 0.148,-0.094c0.02,-0.055 0.109,-0.403 0.124,-0.45c0.014,-0.047 0.128,-0.038 0.133,0.012c0.006,0.049 -0.016,0.499 0.001,0.554c0.018,0.055 0.134,0.521 0.282,0.671c0.148,0.151 0.229,0.166 0.469,0.067c0.242,-0.099 1.398,-0.76 1.712,-1.12c0.078,-0.09 0.165,-0.353 -0.348,-0.544c-0.448,-0.167 -2.636,-0.858 -3.992,0.712c-0.024,0.029 -0.131,-0.021 -0.111,-0.061c0.271,-0.502 0.3,-0.587 0.259,-0.698c-0.041,-0.11 -0.109,-0.213 -0.511,-0.243c-0.038,-0.004 -0.052,-0.111 -0.006,-0.122c0.485,-0.123 0.747,-0.19 0.747,-0.288c0,-0.099 -0.456,-0.523 -0.489,-0.549c-0.031,-0.026 0.046,-0.112 0.093,-0.088c0.23,0.122 0.654,0.306 0.866,0.166c0.212,-0.139 0.126,-0.598 0.114,-0.672c-0.006,-0.031 0.107,-0.074 0.127,-0.025c0.02,0.049 0.288,0.767 0.506,0.973c0.217,0.207 0.726,0.171 0.854,-0.067c0.128,-0.237 -0.197,-0.776 -0.325,-0.903c-0.03,-0.029 0.037,-0.114 0.067,-0.099c0.028,0.015 0.27,0.187 0.404,0.394c0.134,0.206 0.383,0.716 0.597,0.837c0.216,0.123 0.802,0.301 0.895,0.146c0.093,-0.154 -0.246,-0.625 -0.267,-0.647c-0.021,-0.024 0.06,-0.122 0.09,-0.099c0.523,0.397 1.034,1.247 1.034,1.729c0,0.448 -0.832,1.079 -2.298,1.748ZM18.311,25.287c-0.055,0.025 -0.112,0.05 -0.169,0.076c-0.24,0.125 -0.117,0.221 0.764,0.81c0.034,0.023 0.062,0.032 0.105,0.032c0.043,0 1.182,0 1.182,0c0,0 0,2.885 0,2.939c0,0.032 -0.018,0.061 -0.058,0.047c-0.416,-0.141 -0.694,-0.559 -0.694,-0.559c0,0 -0.132,0.554 -0.514,0.662c-0.383,0.11 -0.841,-0.511 -1.423,-1.485c0,0 -0.673,0.192 -1.682,0.624c-0.047,0.021 -0.09,0.004 -0.11,-0.025c-0.021,-0.03 -0.338,-0.482 -0.357,-0.508c-0.069,-0.098 -0.056,-0.239 0.041,-0.33c1.187,-1.123 1.664,-1.701 1.842,-1.944c0.053,-0.072 -0.002,-0.085 -0.127,-0.089c-0.581,-0.02 -0.924,0.091 -1.35,0.58c-0.027,0.031 -0.163,-0.01 -0.133,-0.082c0.151,-0.379 0.175,-0.4 0.152,-0.482c-0.024,-0.082 -0.11,-0.205 -0.395,-0.209c-0.059,-0.001 -0.068,-0.149 -0.012,-0.156c0.329,-0.042 0.535,-0.127 0.585,-0.237c0.035,-0.076 0.021,-0.335 0.023,-0.381c0.003,-0.063 0.125,-0.083 0.144,-0.028c0.019,0.054 0.137,0.364 0.262,0.412c0.125,0.048 0.697,0.218 0.835,0.189c0.137,-0.029 0.167,-0.146 0.154,-0.224c-0.041,-0.234 -0.121,-0.432 -0.235,-0.505c-0.113,-0.072 -0.663,-0.42 -0.692,-0.445c-0.029,-0.026 0.011,-0.119 0.049,-0.112c0.038,0.01 0.579,0.18 0.638,0.19c0.058,0.008 0.127,-0.039 0.148,-0.094c0.02,-0.055 0.109,-0.403 0.124,-0.45c0.014,-0.047 0.128,-0.038 0.133,0.012c0.006,0.049 -0.015,0.499 0.001,0.554c0.018,0.055 0.133,0.521 0.281,0.671c0.148,0.151 0.23,0.166 0.471,0.067c0.241,-0.099 1.397,-0.76 1.711,-1.12c0.078,-0.09 0.165,-0.353 -0.349,-0.544c-0.448,-0.167 -2.635,-0.858 -3.991,0.712c-0.024,0.029 -0.131,-0.021 -0.11,-0.061c0.27,-0.502 0.299,-0.587 0.258,-0.698c-0.041,-0.11 -0.108,-0.213 -0.511,-0.243c-0.038,-0.004 -0.052,-0.111 -0.006,-0.122c0.485,-0.123 0.746,-0.19 0.746,-0.288c0,-0.099 -0.456,-0.523 -0.487,-0.549c-0.032,-0.026 0.045,-0.112 0.092,-0.088c0.23,0.122 0.654,0.306 0.866,0.166c0.212,-0.139 0.126,-0.598 0.114,-0.672c-0.006,-0.031 0.107,-0.074 0.127,-0.025c0.02,0.049 0.288,0.767 0.505,0.973c0.218,0.207 0.727,0.171 0.855,-0.067c0.128,-0.237 -0.198,-0.776 -0.325,-0.903c-0.03,-0.029 0.037,-0.114 0.066,-0.099c0.029,0.015 0.271,0.187 0.405,0.394c0.134,0.206 0.383,0.716 0.598,0.837c0.215,0.123 0.802,0.301 0.894,0.146c0.093,-0.154 -0.247,-0.625 -0.267,-0.647c-0.02,-0.024 0.06,-0.122 0.09,-0.099c0.523,0.397 1.034,1.247 1.034,1.729c0,0.448 -0.831,1.079 -2.298,1.748ZM13.56,17.789l0,15.73l20.571,0l0,-15.73l-20.571,0Z" style="fill:#fff;fill-rule:nonzero;"/><path d="M17.492,26.733c-0.137,0.028 -0.269,-0.04 -0.294,-0.157c-0.026,-0.116 0.065,-0.235 0.201,-0.265c0.137,-0.03 0.269,0.04 0.294,0.156c0.025,0.117 -0.065,0.235 -0.201,0.266Z" style="fill:#fff;fill-rule:nonzero;"/><path d="M23.497,26.733c-0.137,0.028 -0.268,-0.04 -0.294,-0.157c-0.026,-0.116 0.065,-0.235 0.202,-0.265c0.136,-0.03 0.268,0.04 0.293,0.156c0.026,0.117 -0.065,0.235 -0.201,0.266Z" style="fill:#fff;fill-rule:nonzero;"/><path d="M29.502,26.733c-0.138,0.028 -0.267,-0.04 -0.294,-0.157c-0.025,-0.116 0.065,-0.235 0.202,-0.265c0.136,-0.03 0.268,0.04 0.293,0.156c0.026,0.117 -0.064,0.235 -0.201,0.266Z" style="fill:#fff;fill-rule:nonzero;"/><path d="M34.131,16.077l-10.273,-4.491l-10.298,4.505l0,0.778l20.571,0l0,-0.792Z" style="fill:#fff;fill-rule:nonzero;"/><path d="M41.913,12.868c0,0.5 -0.404,0.904 -0.904,0.904c-0.499,0 -0.903,-0.404 -0.903,-0.904c0,-0.499 0.404,-0.904 0.903,-0.904c0.5,0 0.904,0.405 0.904,0.904Z" style="fill:#fff;fill-rule:nonzero;"/><path d="M7.692,12.864c0,0.499 -0.404,0.904 -0.904,0.904c-0.499,0 -0.903,-0.405 -0.903,-0.904c0,-0.499 0.404,-0.904 0.903,-0.904c0.5,0 0.904,0.405 0.904,0.904Z" style="fill:#fff;fill-rule:nonzero;"/><path d="M4.437,22.896c0.463,0.08 1.326,0.228 1.562,0.384c0.09,0.052 0.144,0.215 0.139,0.415c0,0.001 -0.005,0.201 -0.005,0.201c0.009,0.021 0.156,0.083 0.156,0.083l0.099,-0.046c0.007,-0.018 0.073,-0.88 0.073,-0.88l0.122,-0.928c-0.003,-0.019 -0.108,-0.097 -0.108,-0.097l-0.134,0.015c-0.015,0.021 -0.053,0.222 -0.053,0.222c-0.037,0.196 -0.106,0.322 -0.195,0.357c-0.127,0.047 -0.521,0.062 -1.672,-0.138l-0.934,-0.161c-0.973,-0.169 -2.084,-0.647 -1.856,-1.964c0.083,-0.484 0.274,-0.825 0.584,-1.043c0.402,-0.283 1.002,-0.35 1.836,-0.206l1.757,0.304c0.844,0.147 0.935,0.178 0.872,0.634l-0.029,0.198c0.014,0.05 0.052,0.073 0.104,0.081c0.053,0.008 0.119,-0.001 0.149,-0.038c0.006,-0.015 0.209,-1.023 0.209,-1.023l0.252,-1.008c-0.011,-0.06 -0.062,-0.088 -0.107,-0.1c-0.057,-0.016 -0.108,-0.009 -0.136,0.019c-0.007,0.014 -0.069,0.215 -0.069,0.215c-0.137,0.435 -0.255,0.442 -1.119,0.292l-1.92,-0.332c-0.973,-0.169 -1.606,-0.073 -2.055,0.309c-0.362,0.3 -0.605,0.792 -0.72,1.462c-0.11,0.632 0.016,1.276 0.33,1.682c0.349,0.46 0.958,0.76 1.864,0.917l1.004,0.174Z" style="fill:#fff;fill-rule:nonzero;"/><path d="M7.292,31.025c0.049,0.011 0.157,0.117 0.295,0.382l0.054,0.106c0.056,0.038 0.118,0.039 0.169,0.015c0.043,-0.018 0.072,-0.051 0.082,-0.091c-0.002,-0.019 -0.306,-0.827 -0.306,-0.827l-0.298,-0.937c-0.032,-0.045 -0.08,-0.061 -0.134,-0.053c-0.06,0.009 -0.109,0.043 -0.128,0.087c-0.001,0.019 0.029,0.157 0.029,0.157c0.063,0.294 0.068,0.445 0.018,0.506c-0.121,0.141 -0.68,0.35 -1.574,0.589l-1.706,0.458c-0.146,0.039 -0.283,0.076 -0.322,0.06c0.028,0.001 1.099,-1.671 1.099,-1.671c0,0 0.662,-1.007 0.662,-1.007l0.098,-0.147c0.289,-0.431 0.965,-1.443 1.297,-1.677c0,0 0,-0.002 0,-0.003c0.005,-0.053 -0.092,-0.388 -0.092,-0.388c-0.001,-0.003 -0.171,-0.9 -0.171,-0.9c-0.031,-0.045 -0.07,-0.059 -0.116,-0.056c-0.061,0.004 -0.122,0.037 -0.149,0.08c-0.005,0.02 0.008,0.159 0.008,0.159c0.014,0.157 0.011,0.376 -0.083,0.523c-0.139,0.2 -0.292,0.252 -0.527,0.314l-2.324,0.615l-0.128,0.035c-0.429,0.117 -1.226,0.334 -1.505,0.303c-0.082,-0.013 -0.159,-0.117 -0.21,-0.284c-0.001,-0.001 -0.07,-0.208 -0.07,-0.208c-0.014,-0.017 -0.148,-0.025 -0.148,-0.025l-0.112,0.092c-0.001,0.02 0.197,0.837 0.197,0.837l0.171,0.933c0.011,0.019 0.121,0.051 0.121,0.051l0.142,-0.073c0.001,-0.002 0.001,-0.003 0.001,-0.005c0.004,-0.043 -0.021,-0.271 -0.021,-0.271c-0.012,-0.089 -0.014,-0.167 -0.007,-0.233c0.008,-0.086 0.03,-0.149 0.067,-0.186c0.234,-0.205 1.466,-0.54 1.606,-0.577l1.737,-0.466c0.175,-0.047 0.355,-0.087 0.472,-0.091c-0.046,0.067 -0.802,1.173 -0.802,1.173c0,0 -1.608,2.414 -1.608,2.414c-0.629,0.942 -0.826,1.217 -0.929,1.34c0.018,0.119 0.077,0.176 0.152,0.18c0.141,-0.052 0.598,-0.184 1.371,-0.391l2.019,-0.542c0.39,-0.105 1.303,-0.353 1.603,-0.3Z" style="fill:#fff;fill-rule:nonzero;"/><path d="M8.983,33.168c-0.053,-0.035 -0.115,-0.015 -0.159,0.011c-0.024,0.015 -0.081,0.054 -0.08,0.108c0.004,0.016 0.107,0.196 0.107,0.196c0.226,0.398 0.143,0.477 -0.578,0.97l-2.424,1.659c-0.714,0.489 -0.803,0.531 -1.108,0.183l-0.137,-0.157c-0.072,-0.02 -0.13,0.012 -0.166,0.047c-0.037,0.035 -0.055,0.075 -0.05,0.108c0.006,0.015 0.613,0.859 0.613,0.859l0.556,0.857c0.054,0.034 0.115,0.013 0.159,-0.013c0.025,-0.014 0.081,-0.054 0.08,-0.107c-0.004,-0.015 -0.099,-0.199 -0.099,-0.199c-0.215,-0.41 -0.144,-0.478 0.57,-0.966l2.425,-1.66c0.72,-0.493 0.823,-0.543 1.112,-0.188l0.131,0.161c0.062,0.03 0.12,-0.008 0.142,-0.025c0.039,-0.03 0.082,-0.082 0.076,-0.129c-0.006,-0.015 -0.604,-0.844 -0.604,-0.844l-0.566,-0.871Z" style="fill:#fff;fill-rule:nonzero;"/><path d="M15.839,39.719c0.022,-0.043 0.026,-0.083 0.012,-0.113c-0.013,-0.014 -0.677,-0.432 -0.677,-0.432l-0.68,-0.49c-0.061,-0.01 -0.111,0.015 -0.148,0.059c-0.027,0.032 -0.043,0.066 -0.045,0.099c-0.001,0.012 0,0.024 0.003,0.035c0.011,0.017 0.121,0.112 0.121,0.112c0.159,0.137 0.211,0.227 0.208,0.269c0,0.009 -0.003,0.014 -0.006,0.02l-0.249,0.215l-1.727,0.989c0,0 -1.425,0.808 -1.725,0.978c0.036,-0.138 0.756,-2.91 0.756,-2.91c0.176,-0.655 0.335,-1.102 0.372,-1.178c0.022,-0.02 0.087,-0.027 0.347,0.142l0.105,0.066c0.061,0.004 0.103,-0.021 0.133,-0.066c0.031,-0.048 0.041,-0.104 0.025,-0.146c-0.01,-0.014 -0.794,-0.643 -0.794,-0.643l-0.644,-0.576c-0.062,-0.014 -0.109,0.005 -0.145,0.042c-0.037,0.041 -0.055,0.093 -0.045,0.141c0.008,0.016 0.113,0.125 0.113,0.125c0.235,0.249 0.231,0.453 0.101,0.94l-1.017,3.781c-0.091,0.366 -0.221,0.767 -0.358,1.101c0.002,0.028 0.094,0.132 0.094,0.132c0,0 0.104,0.041 0.104,0.041c0.407,-0.278 1.31,-0.815 2.002,-1.206l0.968,-0.54c0.851,-0.474 1.562,-0.828 1.944,-1.001c0.198,-0.085 0.346,-0.086 0.496,-0.002l0.211,0.122c0.073,-0.006 0.122,-0.06 0.145,-0.106Z" style="fill:#fff;fill-rule:nonzero;"/><path d="M20.962,41.277l-0.029,-0.002c-0.097,-0.006 -0.563,-0.15 -1.057,-0.302c-0.007,-0.003 -1.489,-0.462 -1.489,-0.462l-0.922,-0.311c-0.062,0.006 -0.099,0.061 -0.117,0.108c-0.01,0.026 -0.029,0.093 0.004,0.134c0.012,0.009 0.134,0.064 0.134,0.064c0.423,0.189 0.409,0.285 0.156,1.104l-0.879,2.838c-0.257,0.83 -0.327,0.906 -0.757,0.813c0,0 -0.267,-0.057 -0.267,-0.057c-0.071,0.028 -0.095,0.09 -0.102,0.139c-0.007,0.051 0.003,0.094 0.027,0.117c0.014,0.007 1.093,0.316 1.093,0.316l0.71,0.219l2.104,0.679c0.206,-0.194 0.591,-0.742 0.733,-1.002c-0.002,-0.065 -0.031,-0.108 -0.077,-0.137c-0.046,-0.03 -0.099,-0.039 -0.141,-0.026c-0.318,0.328 -0.625,0.556 -0.793,0.592c-0.2,0.033 -0.451,-0.014 -1.031,-0.193c-0.701,-0.218 -0.82,-0.353 -0.878,-0.462c-0.079,-0.161 -0.021,-0.431 0.106,-0.842l0.344,-1.111c0.056,-0.181 0.059,-0.182 0.287,-0.112l0.457,0.142c0.286,0.089 0.484,0.157 0.586,0.224c0.138,0.083 0.148,0.216 0.138,0.346l-0.025,0.329c0.024,0.065 0.087,0.094 0.135,0.104c0.053,0.012 0.099,0.003 0.127,-0.023c0.009,-0.014 0.086,-0.309 0.086,-0.309l0.125,-0.471l0.167,-0.476l0.111,-0.311c-0.007,-0.053 -0.041,-0.086 -0.091,-0.106c-0.044,-0.019 -0.113,-0.031 -0.159,-0.001c-0.011,0.012 -0.174,0.315 -0.174,0.315c-0.1,0.184 -0.163,0.199 -0.248,0.201c-0.096,0.002 -0.335,-0.054 -0.674,-0.158c-0.001,0 -0.457,-0.142 -0.457,-0.142c-0.23,-0.071 -0.23,-0.071 -0.172,-0.262l0.489,-1.577c0.046,-0.148 0.071,-0.229 0.109,-0.25c0.03,-0.015 0.081,-0.003 0.185,0.029l0.568,0.175c0.347,0.108 0.593,0.193 0.743,0.282c0.348,0.211 0.349,0.483 0.351,0.86l0,0.047c0.017,0.047 0.056,0.074 0.108,0.088c0.044,0.011 0.109,0.013 0.147,-0.018c0.011,-0.018 0.034,-0.126 0.034,-0.126c0.077,-0.359 0.181,-0.85 0.176,-0.987l-0.001,-0.029Z" style="fill:#fff;fill-rule:nonzero;"/><path d="M25.641,44.074c-0.415,0.041 -0.527,0.034 -0.547,0.021c-0.017,-0.02 -0.028,-0.125 -0.04,-0.247l-0.188,-1.926c-0.009,-0.095 -0.009,-0.145 0.018,-0.177c0.045,-0.052 0.189,-0.068 0.455,-0.081c0.956,-0.049 1.368,0.508 1.409,1.088c0.032,0.461 -0.053,0.798 -0.3,1.033c-0.223,0.207 -0.549,0.263 -0.807,0.289ZM29.206,46.3c-0.216,0.009 -0.44,-0.045 -0.599,-0.153c-0.629,-0.403 -1.167,-1.037 -1.918,-1.96c-0.057,-0.07 -0.057,-0.115 -0.039,-0.144c0.224,-0.112 0.973,-0.582 0.884,-1.493c-0.066,-0.674 -0.481,-0.975 -0.815,-1.109c-0.369,-0.157 -0.796,-0.132 -1.262,-0.108l-0.137,0.008c-0.745,0.038 -1.32,0.088 -1.811,0.159c-0.047,0.025 -0.068,0.066 -0.068,0.119c-0.001,0.052 0.019,0.118 0.066,0.149c0.015,0.005 0.279,0.025 0.279,0.025c0.301,0.022 0.345,0.116 0.421,0.928l0.285,2.974c0.086,0.88 0.07,0.926 -0.364,1.002l-0.203,0.036c-0.054,0.059 -0.052,0.124 -0.04,0.171c0.013,0.047 0.039,0.082 0.07,0.096c0.016,0.002 1.037,-0.076 1.037,-0.076l0.977,-0.026c0.058,-0.029 0.066,-0.091 0.067,-0.117c0.003,-0.051 -0.009,-0.117 -0.051,-0.149c-0.017,-0.006 -0.191,-0.022 -0.191,-0.022c-0.459,-0.038 -0.479,-0.12 -0.565,-0.988l-0.102,-1.034c-0.014,-0.149 -0.014,-0.149 0.339,-0.184c0.32,-0.032 0.465,0.043 0.605,0.201l0.973,1.128c0.658,0.72 1.08,0.925 1.827,0.83l0.365,-0.09c0.035,-0.034 0.044,-0.073 0.034,-0.109c-0.01,-0.033 -0.034,-0.057 -0.064,-0.064Z" style="fill:#fff;fill-rule:nonzero;"/><path d="M32.788,41.743l-0.778,-0.025c-0.543,-0.026 -0.91,-0.198 -1.09,-0.508c-0.059,-0.101 -0.136,-0.271 -0.141,-0.464c-0.007,-0.248 0.103,-0.538 0.518,-0.779c0.648,-0.376 1.088,-0.071 1.401,0.238c0.045,0.019 0.087,0.011 0.129,-0.017c0.044,-0.029 0.089,-0.08 0.091,-0.129c-0.187,-0.332 -0.489,-0.694 -0.646,-0.823c-0.037,-0.003 -0.304,0.096 -0.304,0.096c-0.219,0.051 -0.498,0.165 -0.724,0.296c-0.887,0.515 -1.191,1.366 -0.754,2.117c0.351,0.607 1.015,0.768 1.509,0.796l0.936,0.048c0.692,0.033 0.956,0.328 1.139,0.644c0.127,0.218 0.164,0.461 0.105,0.685c-0.065,0.243 -0.241,0.454 -0.509,0.61c-0.739,0.43 -1.389,0.049 -1.806,-0.346c-0.038,-0.02 -0.075,-0.016 -0.114,0.006c-0.045,0.025 -0.094,0.076 -0.1,0.135c0.205,0.333 0.6,0.803 0.789,0.918c0.248,0.004 0.722,-0.046 1.299,-0.383c0.496,-0.287 0.82,-0.673 0.937,-1.116c0.035,-0.131 0.05,-0.263 0.047,-0.396c-0.007,-0.248 -0.081,-0.497 -0.219,-0.734c-0.326,-0.562 -0.887,-0.846 -1.715,-0.869Z" style="fill:#fff;fill-rule:nonzero;"/><path d="M39.865,40.306c-0.014,0.006 -0.183,0.125 -0.183,0.125c-0.38,0.268 -0.445,0.216 -1.034,-0.437l-1.964,-2.185c-0.584,-0.649 -0.646,-0.745 -0.333,-1.079l0.143,-0.15c0.021,-0.066 -0.026,-0.119 -0.046,-0.138c-0.036,-0.036 -0.092,-0.07 -0.136,-0.057c-0.015,0.007 -0.758,0.71 -0.758,0.71l-0.788,0.676c-0.027,0.056 0,0.114 0.032,0.154c0.018,0.022 0.065,0.074 0.118,0.066c0.015,-0.006 0.179,-0.131 0.179,-0.131c0.365,-0.277 0.453,-0.205 1.038,0.444l1.965,2.185c0.578,0.643 0.631,0.725 0.326,1.074l-0.137,0.156c-0.011,0.075 0.03,0.127 0.069,0.158c0.04,0.032 0.082,0.045 0.114,0.037c0.014,-0.008 0.769,-0.721 0.769,-0.721c0.001,0 0.777,-0.666 0.777,-0.666c0.027,-0.057 -0.002,-0.116 -0.033,-0.155c-0.018,-0.022 -0.064,-0.073 -0.118,-0.066Z" style="fill:#fff;fill-rule:nonzero;"/><path d="M44.143,34.468c-0.011,0.011 -0.164,0.228 -0.164,0.228c-0.266,0.369 -0.356,0.334 -1.1,-0.092l-3.188,-1.825c-0.118,-0.067 -0.176,-0.1 -0.184,-0.131c-0.009,-0.03 0.022,-0.085 0.072,-0.172l0.291,-0.508c0.224,-0.391 0.433,-0.625 0.639,-0.716c0.098,-0.043 0.317,0.001 0.601,0.121c0.069,-0.007 0.112,-0.06 0.133,-0.109c0.021,-0.05 0.021,-0.099 -0.002,-0.133c-0.238,-0.112 -0.783,-0.489 -1.031,-0.736c-0.083,-0.012 -0.143,0.086 -0.151,0.135c0.12,0.218 0.11,0.271 -0.115,0.662l-1.66,2.901c-0.21,0.368 -0.321,0.541 -0.533,0.467c-0.07,0.014 -0.122,0.129 -0.119,0.17c0.268,0.236 0.662,0.602 0.918,0.901c0.072,0.014 0.127,-0.011 0.166,-0.053c0.036,-0.038 0.053,-0.085 0.048,-0.13c-0.133,-0.185 -0.252,-0.346 -0.311,-0.608c-0.058,-0.251 0.131,-0.626 0.322,-0.96l0.225,-0.394c0.052,-0.09 0.085,-0.146 0.117,-0.155c0.032,-0.008 0.092,0.026 0.192,0.083l3.202,1.833c0.753,0.431 0.812,0.516 0.628,0.915l-0.126,0.27c-0.001,0.061 0.033,0.106 0.088,0.134c0.04,0.02 0.099,0.034 0.138,0.009c0.011,-0.012 0.558,-1.019 0.558,-1.019c0,0 0.558,-0.925 0.558,-0.925c0.007,-0.062 -0.037,-0.109 -0.079,-0.137c-0.024,-0.016 -0.085,-0.049 -0.133,-0.026Z" style="fill:#fff;fill-rule:nonzero;"/><path d="M45.796,25.524c-0.024,0.048 -0.026,0.102 -0.008,0.142c0.359,0.28 0.62,0.559 0.674,0.723c0.055,0.195 0.036,0.45 -0.079,1.045c-0.139,0.721 -0.259,0.856 -0.362,0.925c-0.151,0.096 -0.426,0.068 -0.848,-0.014l-1.142,-0.22l-0.155,-0.056c-0.022,-0.031 -0.01,-0.103 0.012,-0.215l0.091,-0.47c0.054,-0.284 0.101,-0.496 0.157,-0.608c0.068,-0.148 0.198,-0.17 0.329,-0.175l0.33,-0.012c0.062,-0.03 0.084,-0.096 0.089,-0.144c0.006,-0.055 -0.007,-0.099 -0.036,-0.125c-0.015,-0.006 -0.316,-0.05 -0.316,-0.05l-0.484,-0.073l-0.494,-0.115l-0.318,-0.075c-0.052,0.014 -0.081,0.051 -0.097,0.103c-0.013,0.047 -0.017,0.116 0.018,0.158c0.012,0.009 0.332,0.137 0.332,0.137c0.194,0.08 0.216,0.14 0.227,0.224c0.012,0.096 -0.019,0.347 -0.084,0.688l-0.09,0.471c-0.046,0.236 -0.046,0.236 -0.242,0.198l-1.62,-0.312c-0.293,-0.057 -0.293,-0.057 -0.252,-0.268l0.112,-0.583c0.068,-0.357 0.125,-0.61 0.197,-0.77c0.171,-0.368 0.439,-0.399 0.811,-0.444l0.052,-0.005c0.045,-0.022 0.068,-0.063 0.075,-0.116c0.007,-0.046 0.001,-0.11 -0.033,-0.145c-0.02,-0.009 -0.133,-0.02 -0.133,-0.02c-0.363,-0.037 -0.861,-0.087 -0.997,-0.066l-0.029,0.005l0.001,0.029c0.006,0.095 -0.084,0.563 -0.179,1.06c-0.006,0.03 -0.299,1.554 -0.299,1.554l-0.208,0.951c0.013,0.061 0.071,0.091 0.12,0.103c0.028,0.007 0.096,0.02 0.134,-0.018c0.008,-0.013 0.048,-0.14 0.048,-0.14c0.14,-0.441 0.238,-0.438 1.08,-0.276l2.919,0.56c0.852,0.164 0.935,0.226 0.89,0.663l-0.027,0.273c0.036,0.066 0.101,0.084 0.15,0.085c0.051,0.001 0.092,-0.014 0.113,-0.041c0.006,-0.014 0.193,-1.12 0.193,-1.12l0.14,-0.729l0.442,-2.167c-0.214,-0.182 -0.8,-0.505 -1.075,-0.618c-0.066,0.009 -0.105,0.044 -0.129,0.093Z" style="fill:#fff;fill-rule:nonzero;"/><path d="M46.508,19.4l-0.179,-1.066c-0.035,-0.052 -0.099,-0.058 -0.149,-0.052c-0.029,0.004 -0.097,0.018 -0.117,0.067c-0.003,0.016 0.022,0.28 0.022,0.28c0.039,0.452 -0.052,0.484 -0.894,0.645l-3.617,0.688c-0.244,0.047 -0.244,0.047 -0.288,-0.157c0,0 -0.124,-0.574 -0.124,-0.574c-0.095,-0.44 -0.097,-0.753 -0.003,-0.956c0.044,-0.096 0.236,-0.205 0.527,-0.298c0.05,-0.052 0.044,-0.12 0.029,-0.165c-0.017,-0.054 -0.051,-0.092 -0.091,-0.103c-0.253,0.07 -0.912,0.138 -1.263,0.112c-0.071,0.045 -0.049,0.158 -0.02,0.2c0.232,0.087 0.261,0.134 0.357,0.576l0.708,3.274c0.089,0.416 0.122,0.617 -0.083,0.699c-0.045,0.057 -0.006,0.178 0.023,0.206c0.356,0.004 0.894,0.026 1.289,0.086c0.062,-0.035 0.086,-0.088 0.088,-0.145c0.002,-0.053 -0.016,-0.101 -0.051,-0.132c-0.223,-0.055 -0.42,-0.099 -0.639,-0.259c-0.211,-0.153 -0.323,-0.559 -0.405,-0.937l-0.096,-0.444c-0.022,-0.102 -0.034,-0.166 -0.017,-0.192c0.018,-0.028 0.086,-0.041 0.198,-0.062l3.616,-0.69c0.853,-0.162 0.953,-0.136 1.073,0.287l0.08,0.287c0.039,0.048 0.093,0.059 0.154,0.044c0.045,-0.01 0.097,-0.038 0.109,-0.083c0.001,-0.015 -0.237,-1.136 -0.237,-1.136Z" style="fill:#fff;fill-rule:nonzero;"/><path d="M8.739,7.316c0.016,-0.005 0.183,-0.12 0.183,-0.12c0.367,-0.247 0.419,-0.22 0.915,0.474c0.001,0.001 1.164,1.572 1.164,1.572c0.583,0.797 1.106,1.168 1.693,1.204c0.462,0.036 0.944,-0.134 1.519,-0.536c0.536,-0.375 0.86,-0.841 0.937,-1.349c0.092,-0.57 -0.113,-1.22 -0.625,-1.982l-0.52,-0.774c-0.122,-0.183 -0.736,-1.111 -0.79,-1.436c-0.022,-0.096 0.066,-0.231 0.225,-0.346l0.159,-0.115c0.013,-0.023 -0.037,-0.163 -0.037,-0.163l-0.107,-0.053c-0.019,0.006 -0.738,0.469 -0.738,0.469c-0.001,0 -0.811,0.46 -0.811,0.46c-0.014,0.016 -0.006,0.131 -0.006,0.131l0.11,0.102c0.023,-0.001 0.208,-0.093 0.208,-0.093c0.181,-0.09 0.326,-0.113 0.418,-0.066c0.225,0.118 0.656,0.764 0.94,1.191l0.624,0.931c0.356,0.53 0.546,0.997 0.57,1.405c0.029,0.501 -0.194,0.913 -0.667,1.243c-0.924,0.647 -1.727,0.402 -2.602,-0.794l-1.06,-1.438l-0.029,-0.041c-0.474,-0.661 -0.524,-0.73 -0.209,-1.035l0.142,-0.137c0.02,-0.051 0.003,-0.101 -0.037,-0.146c-0.015,-0.017 -0.069,-0.072 -0.122,-0.061c-0.016,0.008 -0.777,0.658 -0.777,0.658l-0.798,0.615c-0.029,0.055 -0.006,0.119 0.024,0.164c0.031,0.044 0.069,0.069 0.104,0.066Z" style="fill:#fff;fill-rule:nonzero;"/><path d="M16.919,2.326c0.481,-0.034 0.558,0.032 0.627,0.538c0,0 0.216,1.807 0.216,1.807l0.147,1.674l0.019,0.255c0.046,0.567 -0.059,0.637 -0.37,0.757c-0.001,0 -0.175,0.069 -0.175,0.069c-0.037,0.04 -0.045,0.085 -0.034,0.134c0.012,0.055 0.044,0.103 0.081,0.121c0.024,0.002 0.847,-0.234 0.847,-0.234l0.904,-0.208c0.045,-0.03 0.062,-0.076 0.057,-0.131c-0.003,-0.047 -0.024,-0.107 -0.074,-0.133c-0.02,-0.002 -0.334,0.053 -0.334,0.053c-0.122,0.022 -0.196,0.016 -0.25,-0.022c-0.098,-0.068 -0.148,-0.265 -0.206,-0.605l-0.246,-1.825l-0.02,-0.177c0,0 -0.134,-1.198 -0.153,-1.366c0.081,0.121 0.389,0.581 0.389,0.581l0.277,0.425c0,0 0.997,1.448 0.997,1.448l0.143,0.203c0.267,0.383 0.67,0.96 0.847,1.3c0.035,0.041 0.093,0.041 0.111,0.038c0.05,-0.009 0.085,-0.031 0.101,-0.065c0.079,-0.38 0.301,-1.165 0.566,-2.008l0.485,-1.546l0.165,-0.549c0,0 0.118,-0.382 0.158,-0.509c0.033,0.18 0.608,3.309 0.608,3.309c0.029,0.178 0.05,0.307 0.053,0.402c0.004,0.191 -0.069,0.248 -0.31,0.291l-0.233,0.042c-0.019,0.011 -0.041,0.138 -0.041,0.138l0.081,0.126c0.02,0.004 1.001,-0.092 1.001,-0.092l0.965,-0.044c0.046,-0.027 0.063,-0.064 0.064,-0.11c0.001,-0.052 -0.017,-0.119 -0.062,-0.155c-0.02,-0.007 -0.285,-0.013 -0.285,-0.013c-0.345,-0.012 -0.383,-0.182 -0.467,-0.554l-0.013,-0.061l-0.716,-3.547c-0.1,-0.557 -0.075,-0.696 0.416,-0.789l0.168,-0.028c0.049,-0.043 0.043,-0.107 0.039,-0.132c-0.003,-0.025 -0.02,-0.105 -0.072,-0.134c-0.02,-0.003 -0.741,0.074 -0.741,0.074l-0.647,0.021l0.003,0.035c0.004,0.035 0.007,0.073 0.008,0.111c0.008,0.367 -0.144,0.854 -0.362,1.556c0,0 -0.545,1.828 -0.545,1.828c0,0 -0.374,1.169 -0.376,1.176c-0.005,-0.058 -0.605,-0.871 -0.605,-0.871l-0.107,-0.15l0,0.001l-1.246,-1.777c-0.288,-0.387 -0.62,-0.875 -0.642,-1.215l-0.004,-0.039l-0.69,0.188c-0.017,0.004 -0.661,0.13 -0.661,0.13c-0.047,0.032 -0.066,0.078 -0.066,0.131c0,0.056 0.02,0.108 0.054,0.134c0.023,0.007 0.155,-0.008 0.156,-0.007Z" style="fill:#fff;fill-rule:nonzero;"/><path d="M27.26,6.911l0.72,0.182c0,0 2.138,0.566 2.138,0.566c0.195,-0.204 0.551,-0.771 0.679,-1.039c-0.006,-0.065 -0.037,-0.106 -0.085,-0.133c-0.047,-0.027 -0.101,-0.033 -0.142,-0.017c-0.301,0.343 -0.594,0.587 -0.761,0.631c-0.198,0.044 -0.45,0.011 -1.038,-0.138c-0.712,-0.18 -0.839,-0.309 -0.902,-0.414c-0.088,-0.158 -0.044,-0.43 0.062,-0.847l0.284,-1.128l0.066,-0.151c0.032,-0.02 0.103,-0.004 0.214,0.025l0.465,0.117c0.292,0.074 0.494,0.132 0.597,0.192c0.144,0.077 0.159,0.208 0.156,0.338c0,0.001 -0.008,0.331 -0.008,0.331c0.027,0.063 0.092,0.09 0.14,0.097c0.053,0.009 0.099,-0.002 0.126,-0.029c0.007,-0.015 0.069,-0.313 0.069,-0.313l0.101,-0.478l0.143,-0.486l0.093,-0.314c-0.01,-0.053 -0.046,-0.085 -0.098,-0.103c-0.046,-0.016 -0.115,-0.023 -0.158,0.008c-0.01,0.013 -0.157,0.325 -0.157,0.325c-0.09,0.188 -0.152,0.207 -0.236,0.213c-0.097,0.007 -0.339,-0.036 -0.682,-0.123l-0.464,-0.117c-0.234,-0.059 -0.234,-0.059 -0.184,-0.253l0.404,-1.599c0.038,-0.151 0.058,-0.233 0.096,-0.256c0.028,-0.017 0.081,-0.008 0.186,0.019l0.576,0.146c0.353,0.089 0.603,0.16 0.757,0.241c0.358,0.192 0.374,0.462 0.396,0.836l0.004,0.052c0.019,0.045 0.059,0.071 0.112,0.082c0.044,0.008 0.108,0.007 0.145,-0.026c0.01,-0.019 0.028,-0.131 0.028,-0.131c0.057,-0.361 0.136,-0.855 0.124,-0.992l-0.004,-0.03l-0.029,0c-0.097,0 -0.564,-0.118 -1.059,-0.243c-0.02,-0.004 -1.524,-0.385 -1.524,-0.385l-0.936,-0.262c-0.062,0.01 -0.095,0.065 -0.111,0.114c-0.009,0.027 -0.025,0.095 0.011,0.135c0.012,0.008 0.136,0.056 0.136,0.056c0.433,0.166 0.424,0.263 0.214,1.094l-0.728,2.881c-0.213,0.841 -0.279,0.921 -0.713,0.851l-0.27,-0.043c-0.068,0.032 -0.089,0.095 -0.094,0.144c-0.004,0.051 0.008,0.094 0.034,0.115c0.014,0.008 1.107,0.259 1.107,0.259Z" style="fill:#fff;fill-rule:nonzero;"/><path d="M37.704,5.177c-0.171,0.243 -0.443,0.314 -0.652,0.166c-0.203,-0.143 -0.234,-0.428 -0.062,-0.67c0.166,-0.236 0.449,-0.309 0.652,-0.166c0.209,0.147 0.229,0.434 0.062,0.67ZM36.255,6.493l-0.478,1.54c-0.022,0.075 -0.049,0.157 -0.08,0.168c-0.031,0.01 -0.098,-0.033 -0.166,-0.081c0,0 -0.923,-0.648 -0.923,-0.648c-0.059,-0.042 -0.133,-0.093 -0.133,-0.115l0,0c0.001,-0.02 0.064,-0.065 0.105,-0.095c0.001,0 1.412,-0.994 1.412,-0.994c0,0 0.289,-0.185 0.392,-0.251c-0.024,0.088 -0.129,0.476 -0.129,0.476ZM37.799,4.284c-0.398,-0.281 -0.888,-0.172 -1.127,0.165c-0.185,0.262 -0.184,0.625 0.015,0.906l-0.463,0.322c0,0.001 -1.972,1.336 -1.972,1.336c0.058,0.004 -1.604,1.055 -1.12,0.737l-0.536,0.351c-0.225,0.156 -0.416,0.18 -0.618,0.077c0,0 -0.243,-0.12 -0.243,-0.12c-0.059,0.002 -0.099,0.035 -0.128,0.085c-0.022,0.038 -0.04,0.094 -0.022,0.136c0.014,0.015 0.185,0.112 0.185,0.112l0.506,0.293l0.236,0.152l0.468,0.312c0.063,0.012 0.113,-0.011 0.149,-0.057c0.037,-0.046 0.05,-0.102 0.034,-0.144c-0.01,-0.013 -0.224,-0.175 -0.224,-0.175c-0.154,-0.115 -0.14,-0.159 -0.099,-0.218c0.052,-0.075 0.235,-0.232 0.545,-0.469l0.56,-0.382c0.133,-0.097 0.171,-0.095 0.334,0.02l1.112,0.781c0.197,0.138 0.198,0.164 0.146,0.328c-0.001,0 -0.265,0.919 -0.265,0.919c-0.054,0.17 -0.11,0.339 -0.165,0.416c-0.033,0.046 -0.133,0.021 -0.268,-0.066l-0.201,-0.13c-0.058,-0.006 -0.102,0.022 -0.132,0.068c-0.033,0.051 -0.041,0.11 -0.021,0.153c0.01,0.012 0.154,0.119 0.154,0.119l0.609,0.463l0.763,0.642c0.067,0.006 0.113,-0.036 0.139,-0.072c0.032,-0.046 0.044,-0.092 0.032,-0.131c-0.008,-0.013 -0.167,-0.172 -0.167,-0.172c-0.245,-0.247 -0.25,-0.415 -0.032,-1.123c0,-0.001 0.992,-3.366 0.992,-3.366l0.12,-0.412l0.13,-0.437c0.313,0.063 0.624,-0.057 0.797,-0.302c0.237,-0.337 0.174,-0.836 -0.223,-1.117Z" style="fill:#fff;fill-rule:nonzero;"/></g></g></svg>